<?xml version="1.0" encoding="UTF-8"?>
<svg width="15px" height="15px" viewBox="0 0 15 15" version="1.1" xmlns="http://www.w3.org/2000/svg" xmlns:xlink="http://www.w3.org/1999/xlink">
    <!-- Generator: Sketch 63.1 (92452) - https://sketch.com -->
    <title>re-fresh</title>
    <desc>Created with Sketch.</desc>
    <g id="Page-1" stroke="none" stroke-width="1" fill="none" fill-rule="evenodd">
        <g id="re-fresh" fill="#253659" fill-rule="nonzero">
            <path d="M14.1567,6.6875 C13.6904,6.6875 13.324,7.0539 13.324,7.52022 C13.3129,9.07463 12.7133,10.5291 11.6252,11.6172 C10.526,12.7164 9.06047,13.327 7.50606,13.327 C5.95165,13.327 4.48604,12.7164 3.38685,11.6172 C3.35354,11.5839 3.33135,11.5506 3.29804,11.5173 L4.21957,11.5173 C4.67479,11.5173 5.05229,11.1398 5.05229,10.6846 C5.05229,10.2293 4.67479,9.85183 4.21957,9.85183 L1.2773,9.85183 C0.82208,9.85183 0.44458,10.2293 0.44458,10.6846 L0.44458,13.6268 C0.44458,14.082 0.82208,14.4595 1.2773,14.4595 C1.73252,14.4595 2.11002,14.082 2.11002,13.6268 L2.11002,12.6831 C2.14333,12.7164 2.17663,12.7608 2.20994,12.8052 C3.62001,14.2153 5.50753,15.0036 7.50606,15.0036 C9.50458,15.0036 11.3921,14.2264 12.8021,12.8052 C14.2011,11.4062 14.9783,9.52985 14.9894,7.53132 C14.9894,7.065 14.6119,6.6986 14.1567,6.6875 Z" id="Path"></path>
            <path d="M0.832965,8.21616 C1.28819,8.21616 1.65458,7.84977 1.66568,7.39455 C1.68789,5.87345 2.29855,4.44117 3.36443,3.36419 C4.46362,2.265 5.9292,1.65434 7.48361,1.65434 C9.03802,1.65434 10.5036,2.265 11.6028,3.36419 C11.6361,3.39749 11.6583,3.4308 11.6916,3.46411 L10.7701,3.46411 C10.3149,3.46411 9.93738,3.84161 9.93738,4.29683 C9.93738,4.75205 10.3149,5.12955 10.7701,5.12955 L13.7124,5.12955 C14.1676,5.12955 14.5451,4.75205 14.5451,4.29683 L14.5451,1.36566 C14.5451,0.91044 14.1676,0.53294 13.7124,0.53294 C13.2571,0.53294 12.8796,0.91044 12.8796,1.36566 L12.8796,2.32051 C12.8463,2.2872 12.813,2.24279 12.7797,2.19838 C11.3697,0.788308 9.48213,0 7.48361,0 C5.48508,0 3.59759,0.777205 2.18752,2.19838 C0.799658,3.57514 0.0224517,5.41823 0.000245814,7.37234 C-0.0108571,7.82756 0.355529,8.20506 0.821851,8.21616 C0.832954,8.21616 0.832965,8.21616 0.832965,8.21616 Z" id="Path"></path>
        </g>
    </g>
</svg>